<?xml version="1.0" encoding="UTF-8"?>
<svg id="Capa_1" data-name="Capa 1" xmlns="http://www.w3.org/2000/svg" viewBox="0 0 996.65 996.65">
  <defs>
    <style>
      .cls-1 {
        fill: #54b046;
      }

      .cls-2 {
        fill: #fff;
      }

      .cls-3 {
        fill: #fabb60;
        stroke: #1d1d1b;
        stroke-miterlimit: 10;
        stroke-width: 34px;
      }

      .cls-4 {
        fill: #4bb590;
      }

      .cls-5 {
        fill: #377bbf;
      }
    </style>
  </defs>
  <circle class="cls-3" cx="498.41" cy="500.27" r="479.23"/>
  <g>
    <g>
      <path class="cls-5" d="M913.07,522.92c-2.16,3.16-5.78,7.81-11.3,12.16-8.27,6.52-14.62,7.51-27.15,13.81-7.02,3.54-14.36,7.92-17.64,10.43-16.3,12.46-13.36,40.45-12.78,79.19.73,47.6,1.09,71.39-5.83,81.26-5.8,8.29-17.97,19.2-104.43,25.39-58.09,4.17-87.14,6.25-119.45,1.44-24.46-3.65-69.17-10.31-115.87-37.39,5.14-2.97,10.3-6.2,15.46-9.7,94.55-64.02,115.08-168.56,117.31-180.95,4.2-23.31,15.78-104.75-31.82-186.58-34.21-58.8-81.42-87.61-100.76-99.1-.06-.04-.12-.07-.19-.12,24.72-14.68,98.89-58.51,193.56-38.68,88.68,18.58,137.96,81.01,150.38,97.26,34.52,45.13,46.21,92.31,56.54,134.04,9.72,39.21,12.94,73.09,13.96,97.54Z"/>
      <circle class="cls-2" cx="771.35" cy="407.18" r="49.14"/>
    </g>
    <path class="cls-1" d="M631.39,518.56c-2.22,12.39-22.75,116.93-117.31,180.95-5.16,3.49-10.32,6.72-15.46,9.7-5.14-2.97-10.31-6.2-15.47-9.7-94.55-64.02-115.08-168.56-117.31-180.95-4.21-23.31-15.79-104.75,31.82-186.58,34.2-58.8,81.42-87.61,100.76-99.1.07-.04.13-.08.21-.12.07.05.13.08.19.12,19.33,11.49,66.54,40.3,100.76,99.1,47.6,81.84,36.02,163.27,31.82,186.58Z"/>
    <path class="cls-4" d="M483.14,699.51c5.16,3.49,10.34,6.72,15.47,9.7-46.7,27.07-91.42,33.74-115.88,37.39-32.3,4.81-61.36,2.73-119.46-1.44-86.45-6.19-98.62-17.09-104.43-25.39-6.9-9.87-6.54-33.66-5.82-81.26.58-38.74,3.52-66.72-12.78-79.19-3.28-2.51-10.61-6.89-17.65-10.43-12.53-6.3-18.87-7.29-27.14-13.81-5.53-4.35-9.15-9.01-11.3-12.16,1.02-24.45,4.24-58.33,13.96-97.54,10.34-41.73,22.02-88.91,56.54-134.04,12.43-16.25,61.71-78.68,150.38-97.26,94.68-19.84,168.86,24.01,193.57,38.68-.07.04-.13.08-.21.12-19.33,11.49-66.55,40.3-100.76,99.1-47.61,81.84-36.03,163.27-31.82,186.58,2.22,12.39,22.75,116.93,117.31,180.95Z"/>
    <circle class="cls-2" cx="231.66" cy="407.18" r="49.14"/>
    <path class="cls-2" d="M569.82,551.7l-64.47,40.4v112.82l-6.93,3.34-6.93-3.34v-112.82l-64.47-40.4c-5.17-3.24-6.4-10.26-2.61-15.08l.08-.1c3.2-4.07,8.95-5.11,13.38-2.43l53.62,32.42v-44.3l-59.97-36.34c-5.91-3.58-7.37-11.51-3.14-16.96,2.26-2.91,5.67-4.47,9.15-4.47,1.91,0,3.84.47,5.61,1.46l48.35,26.98v-41.81l-61.05-36.15c-5.73-3.39-7.36-10.94-3.54-16.39,2.2-3.17,5.74-4.88,9.37-4.88,1.96,0,3.93.5,5.73,1.55l49.5,28.74v-42.12l-60.98-36.41c-5.39-3.23-6.83-10.4-3.09-15.45,2.07-2.79,5.27-4.3,8.55-4.3,1.72,0,3.46.42,5.07,1.29l50.46,27.42v-55.17c0-3.83,3.1-6.93,6.93-6.93h0c3.83,0,6.93,3.1,6.93,6.93v55.17l50.46-27.42c1.61-.87,3.35-1.29,5.07-1.29,3.28,0,6.48,1.51,8.55,4.3,3.74,5.05,2.3,12.22-3.09,15.45l-60.98,36.41v42.12l49.5-28.74c1.8-1.05,3.77-1.55,5.73-1.55,3.63,0,7.17,1.72,9.37,4.88,3.82,5.45,2.19,13.01-3.54,16.39l-61.05,36.15v41.81l48.35-26.98c1.77-.99,3.7-1.46,5.61-1.46,3.48,0,6.89,1.56,9.15,4.47,4.23,5.45,2.77,13.38-3.14,16.96l-59.97,36.34v44.3l53.62-32.42c4.44-2.68,10.18-1.64,13.38,2.43l.08.1c3.78,4.81,2.56,11.84-2.61,15.08Z"/>
  </g>
</svg>