<?xml version="1.0" encoding="UTF-8"?>
<svg id="Capa_1" xmlns="http://www.w3.org/2000/svg" viewBox="0 0 1080 1080">
  <defs>
    <style>
      .cls-1 {
        fill: #1d1d1b;
        font-size: 109px;
      }

      .cls-1, .cls-2 {
        font-family: AvantGardeBold, 'Avant Garde';
      }

      .cls-3 {
        fill: #54b046;
      }

      .cls-4 {
        fill: #fff;
      }

      .cls-5, .cls-2 {
        fill: #4bb590;
      }

      .cls-2 {
        font-size: 58px;
      }

      .cls-6 {
        fill: #377bbf;
      }
    </style>
  </defs>
  <g>
    <g>
      <path class="cls-6" d="M882.98,413.73c-1.79,2.61-4.78,6.46-9.35,10.06-6.84,5.39-12.09,6.21-22.46,11.42-5.81,2.93-11.88,6.55-14.59,8.63-13.48,10.31-11.05,33.46-10.57,65.5.6,39.37.9,59.05-4.82,67.21-4.8,6.86-14.86,15.88-86.38,21-48.05,3.45-72.08,5.17-98.8,1.19-20.23-3.02-57.21-8.53-95.84-30.93,4.25-2.46,8.52-5.13,12.79-8.02,78.21-52.95,95.19-139.42,97.03-149.67,3.47-19.28,13.05-86.64-26.32-154.33-28.3-48.64-67.35-72.47-83.34-81.97-.05-.03-.1-.06-.16-.1,20.45-12.14,81.8-48.4,160.1-31.99,73.35,15.37,114.11,67.01,124.39,80.45,28.55,37.33,38.22,76.35,46.77,110.87,8.04,32.43,10.7,60.46,11.55,80.68Z"/>
      <circle class="cls-4" cx="765.75" cy="318" r="40.65"/>
    </g>
    <path class="cls-3" d="M649.99,410.12c-1.84,10.25-18.82,96.72-97.03,149.67-4.27,2.89-8.54,5.56-12.79,8.02-4.25-2.46-8.53-5.13-12.8-8.02-78.21-52.95-95.19-139.42-97.03-149.67-3.48-19.28-13.06-86.64,26.32-154.33,28.29-48.64,67.35-72.47,83.34-81.97.06-.03.11-.07.17-.1.06.04.11.07.16.1,15.99,9.5,55.04,33.33,83.34,81.97,39.37,67.69,29.79,135.05,26.32,154.33Z"/>
    <path class="cls-5" d="M527.37,559.79c4.27,2.89,8.55,5.56,12.8,8.02-38.63,22.39-75.62,27.91-95.85,30.93-26.72,3.98-50.75,2.26-98.81-1.19-71.51-5.12-81.57-14.14-86.38-21-5.71-8.16-5.41-27.84-4.81-67.21.48-32.04,2.91-55.19-10.57-65.5-2.71-2.08-8.78-5.7-14.6-8.63-10.36-5.21-15.61-6.03-22.45-11.42-4.57-3.6-7.57-7.45-9.35-10.06.84-20.22,3.51-48.25,11.55-80.68,8.55-34.52,18.21-73.54,46.77-110.87,10.28-13.44,51.04-65.08,124.39-80.45,78.31-16.41,139.67,19.86,160.11,31.99-.06.03-.11.07-.17.1-15.99,9.5-55.05,33.33-83.34,81.97-39.38,67.69-29.8,135.05-26.32,154.33,1.84,10.25,18.82,96.72,97.03,149.67Z"/>
    <circle class="cls-4" cx="319.36" cy="318" r="40.65"/>
    <path class="cls-4" d="M599.06,437.53l-53.33,33.42v93.32l-5.73,2.76-5.73-2.76v-93.32l-53.33-33.42c-4.28-2.68-5.29-8.49-2.16-12.47l.07-.08c2.65-3.37,7.4-4.23,11.07-2.01l44.35,26.82v-36.64l-49.6-30.06c-4.89-2.96-6.1-9.52-2.6-14.03,1.87-2.41,4.69-3.7,7.57-3.7,1.58,0,3.18.39,4.64,1.21l39.99,22.32v-34.58l-50.5-29.9c-4.74-2.8-6.09-9.05-2.93-13.56,1.82-2.62,4.75-4.04,7.75-4.04,1.62,0,3.25.41,4.74,1.28l40.94,23.77v-34.84l-50.44-30.12c-4.46-2.67-5.65-8.6-2.56-12.78,1.71-2.31,4.36-3.56,7.07-3.56,1.42,0,2.86.35,4.19,1.07l41.74,22.68v-45.63c0-3.16,2.57-5.73,5.73-5.73h0c3.16,0,5.73,2.57,5.73,5.73v45.63l41.74-22.68c1.33-.72,2.77-1.07,4.19-1.07,2.71,0,5.36,1.25,7.07,3.56,3.09,4.18,1.9,10.11-2.56,12.78l-50.44,30.12v34.84l40.94-23.77c1.49-.87,3.12-1.28,4.74-1.28,3,0,5.93,1.42,7.75,4.04,3.16,4.51,1.81,10.76-2.93,13.56l-50.5,29.9v34.58l39.99-22.32c1.46-.82,3.06-1.21,4.64-1.21,2.88,0,5.7,1.29,7.57,3.7,3.5,4.51,2.29,11.07-2.6,14.03l-49.6,30.06v36.64l44.35-26.82c3.67-2.22,8.42-1.36,11.07,2.01l.07.08c3.13,3.98,2.12,9.79-2.16,12.47Z"/>
  </g>
  <text class="cls-1" transform="translate(114.84 770.6)"><tspan x="0" y="0">E-CONSCIENCE</tspan></text>
  <text class="cls-2" transform="translate(73.04 871.83)"><tspan x="0" y="0">ACT TODAY, SAVE TOMORROW.</tspan></text>
</svg>