<?xml version="1.0" encoding="UTF-8"?>
<svg id="Capa_1" xmlns="http://www.w3.org/2000/svg" viewBox="0 0 1080 1080">
  <defs>
    <style>
      .cls-1 {
        fill: #54b046;
      }

      .cls-2 {
        fill: #fff;
      }

      .cls-3 {
        fill: #4bb590;
      }

      .cls-4 {
        fill: #377bbf;
      }
    </style>
  </defs>
  <g>
    <path class="cls-4" d="M1066.55,626.52c-2.73,3.97-7.28,9.84-14.24,15.32-10.42,8.21-18.41,9.46-34.2,17.39-8.85,4.46-18.09,9.97-22.22,13.14-20.53,15.7-16.83,50.95-16.09,99.74.91,59.95,1.37,89.91-7.34,102.34-7.31,10.45-22.63,24.18-131.53,31.98-73.16,5.25-109.75,7.87-150.44,1.81-30.8-4.6-87.11-12.99-145.93-47.1,6.47-3.75,12.97-7.81,19.48-12.21,119.09-80.63,144.94-212.29,147.75-227.9,5.28-29.36,19.87-131.93-40.08-235-43.09-74.06-102.55-110.35-126.9-124.81-.08-.05-.15-.09-.24-.15,31.14-18.49,124.56-73.7,243.78-48.71,111.69,23.4,173.75,102.03,189.41,122.5,43.47,56.84,58.2,116.26,71.22,168.82,12.24,49.38,16.29,92.06,17.59,122.85Z"/>
    <circle class="cls-2" cx="888.05" cy="480.75" r="61.89"/>
  </g>
  <path class="cls-1" d="M711.78,621.02c-2.8,15.61-28.66,147.27-147.75,227.9-6.5,4.4-13,8.47-19.48,12.21-6.47-3.75-12.99-7.81-19.49-12.21-119.09-80.63-144.94-212.29-147.75-227.9-5.3-29.36-19.89-131.93,40.08-235,43.08-74.06,102.55-110.35,126.9-124.81.09-.05.17-.11.26-.15.09.06.17.11.24.15,24.35,14.47,83.81,50.75,126.9,124.81,59.95,103.07,45.36,205.64,40.08,235Z"/>
  <path class="cls-3" d="M525.07,848.92c6.5,4.4,13.02,8.47,19.49,12.21-58.82,34.09-115.15,42.5-145.95,47.1-40.69,6.06-77.28,3.44-150.46-1.81-108.89-7.8-124.21-21.53-131.53-31.98-8.69-12.43-8.24-42.39-7.32-102.34.73-48.79,4.43-84.04-16.09-99.74-4.13-3.17-13.37-8.68-22.23-13.14-15.78-7.93-23.77-9.18-34.18-17.39-6.96-5.48-11.53-11.34-14.24-15.32,1.28-30.79,5.34-73.47,17.59-122.85,13.02-52.56,27.73-111.98,71.22-168.82,15.65-20.46,77.72-99.1,189.41-122.5,119.24-24.99,212.67,30.24,243.8,48.71-.09.05-.17.11-.26.15-24.35,14.47-83.82,50.75-126.9,124.81-59.96,103.07-45.38,205.64-40.08,235,2.8,15.61,28.66,147.27,147.75,227.9Z"/>
  <circle class="cls-2" cx="208.33" cy="480.75" r="61.89"/>
  <path class="cls-2" d="M634.23,662.76l-81.2,50.89v142.1l-8.72,4.2-8.72-4.2v-142.1l-81.2-50.89c-6.52-4.08-8.05-12.93-3.29-18.99l.11-.12c4.04-5.13,11.27-6.44,16.86-3.06l67.53,40.84v-55.79l-75.53-45.77c-7.45-4.51-9.29-14.5-3.96-21.36,2.85-3.67,7.14-5.63,11.53-5.63,2.41,0,4.84.59,7.07,1.84l60.89,33.99v-52.65l-76.9-45.53c-7.22-4.26-9.27-13.78-4.46-20.65,2.77-3.99,7.23-6.15,11.8-6.15,2.47,0,4.95.62,7.22,1.95l62.34,36.19v-53.05l-76.8-45.86c-6.79-4.07-8.6-13.1-3.9-19.46,2.6-3.52,6.64-5.42,10.77-5.42,2.16,0,4.35.53,6.38,1.63l63.56,34.53v-69.48c0-4.82,3.91-8.72,8.72-8.72h0c4.82,0,8.72,3.91,8.72,8.72v69.48l63.56-34.53c2.03-1.1,4.22-1.63,6.38-1.63,4.13,0,8.16,1.9,10.77,5.42,4.71,6.36,2.89,15.39-3.9,19.46l-76.8,45.86v53.05l62.34-36.19c2.27-1.32,4.75-1.95,7.22-1.95,4.57,0,9.03,2.16,11.8,6.15,4.81,6.87,2.76,16.38-4.46,20.65l-76.9,45.53v52.65l60.89-33.99c2.22-1.25,4.66-1.84,7.07-1.84,4.39,0,8.68,1.96,11.53,5.63,5.33,6.87,3.49,16.86-3.96,21.36l-75.53,45.77v55.79l67.53-40.84c5.59-3.38,12.82-2.07,16.86,3.06l.11.12c4.77,6.06,3.23,14.91-3.29,18.99Z"/>
</svg>